<svg width="447" height="447" viewBox="0 0 447 447" fill="none" xmlns="http://www.w3.org/2000/svg">
<path d="M432.214 172.914C427.39 113.429 424.977 83.6857 413.748 64.4425C381.598 9.34361 288.122 -3.76116 229.086 1.26419C150.05 7.99014 59.633 53.4253 19.833 141.149C-16.3157 220.827 0.352632 311.018 54.821 370.016C154.67 478.169 360.637 458.859 410.951 387.891C431.03 359.569 432.477 314.331 434.604 247.879C435.627 215.891 433.632 190.4 432.214 172.914Z" fill="#F4F7FA"/>
<path d="M394.341 36.6688C389.231 32.4412 381.479 30.1387 374.927 29.6738C328.481 26.3825 321.702 123.468 328.822 145.165C335.941 166.861 331.328 173.985 294.748 185.337C258.167 196.689 275.716 218.545 280.175 231.326C284.633 244.108 293.463 254.905 266.796 267.606C240.13 280.306 249.397 288.175 249.397 288.175C249.397 288.175 298.574 338.478 295.857 322.373C293.141 306.269 298.063 281.951 342.154 280.102C361.146 279.306 390.228 270.247 396.667 249.912C398.167 245.176 399.21 237.944 398.07 233.043C396.487 226.244 392.025 220.887 389.548 214.488C383.774 199.576 398.256 188.655 406.59 178.688C410.942 173.484 415.291 168.148 418.622 162.215C425.54 149.897 422.95 136.687 415.417 125.332C411.804 119.888 406.785 114.111 405.208 107.616C403.516 100.64 404.992 91.1085 405.393 83.932C405.708 78.3031 406.245 72.6966 405.928 67.0534C405.342 56.56 402.883 43.7371 394.341 36.6688Z" fill="url(#paint0_linear_9_1677)"/>
<g opacity="0.8">
<g opacity="0.8">
<path opacity="0.8" d="M245.53 316.409C245.211 316.523 244.85 316.388 244.689 316.081C244.514 315.745 244.643 315.329 244.979 315.154C245.186 315.046 265.889 304.156 288.984 286.22C310.265 269.693 337.989 243.635 349.214 213.341C358.589 188.041 367.138 146.214 372.672 98.5877C377.633 55.8802 378.417 24.295 376.308 18.4321C376.179 18.0754 376.366 17.6821 376.722 17.5531C377.079 17.4241 377.472 17.6104 377.601 17.9671C380.068 24.8268 378.503 60.3084 374.038 98.747C368.493 146.478 359.916 188.42 350.503 213.819C339.163 244.423 311.238 270.682 289.809 287.32C266.619 305.326 245.824 316.262 245.617 316.37C245.587 316.385 245.559 316.398 245.53 316.409Z" fill="white"/>
</g>
<g opacity="0.8">
<path opacity="0.8" d="M372.596 106.866C372.241 106.994 371.88 106.895 371.749 106.54C371.577 106.07 354.262 59.487 331.935 48.9698C331.591 48.809 331.453 48.4204 331.613 48.0765C331.776 47.7326 332.188 47.5972 332.531 47.758C355.369 58.5157 372.324 104.121 373.036 106.062C373.166 106.419 372.956 106.737 372.6 106.865C372.598 106.866 372.596 106.866 372.596 106.866Z" fill="white"/>
</g>
<g opacity="0.8">
<path opacity="0.8" d="M364.152 160.888C363.888 160.984 363.579 160.909 363.389 160.678C363.149 160.385 363.19 159.952 363.483 159.712C363.611 159.607 376.359 149.15 392.087 140.375C413.34 128.518 429.628 125.208 440.497 130.537C440.838 130.704 440.978 131.115 440.811 131.456C440.644 131.797 440.233 131.937 439.892 131.77C414.883 119.509 364.857 160.357 364.356 160.771C364.294 160.823 364.224 160.863 364.152 160.888Z" fill="white"/>
</g>
<g opacity="0.8">
<path opacity="0.8" d="M308.651 271.312C308.581 271.337 308.508 271.35 308.43 271.351C308.051 271.358 307.739 271.055 307.733 270.675C307.729 270.476 307.376 250.489 303.193 229.429C299.357 210.12 291.437 185.935 275.488 180.362C275.13 180.236 274.94 179.844 275.066 179.487C275.19 179.129 275.584 178.94 275.94 179.066C289.239 183.712 298.862 200.573 304.543 229.181C308.749 250.36 309.102 270.453 309.105 270.654C309.112 270.957 308.92 271.214 308.651 271.312Z" fill="white"/>
</g>
<g opacity="0.8">
<path opacity="0.8" d="M337.032 239.021C336.753 239.121 336.431 239.032 336.247 238.782C336.021 238.476 336.086 238.046 336.39 237.822C338.602 236.186 390.772 197.832 411.117 201.494C411.492 201.561 411.738 201.92 411.671 202.292C411.605 202.666 411.248 202.915 410.874 202.846C391.105 199.287 337.743 238.529 337.207 238.925C337.153 238.968 337.092 238.998 337.032 239.021Z" fill="white"/>
</g>
</g>
<path d="M435.105 179.664C431.728 173.958 425.212 169.168 419.204 166.513C376.61 147.7 337.381 236.765 336.738 259.591C336.095 282.417 329.343 287.56 291.081 285.864C252.818 284.168 261.936 310.674 261.807 324.21C261.678 337.746 266.332 350.894 236.941 353.822C207.55 356.751 213.607 367.29 213.607 367.29C213.607 367.29 242.863 431.266 245.756 415.192C248.649 399.117 261.509 377.9 303.624 391.081C321.764 396.758 352.196 398.075 365.137 381.118C368.151 377.169 371.579 370.717 372.164 365.719C372.974 358.786 370.589 352.235 370.422 345.375C370.033 329.388 387.358 324.013 398.572 317.454C404.427 314.03 410.325 310.48 415.468 306.024C426.147 296.775 428.18 283.468 424.933 270.234C423.376 263.888 420.607 256.753 421.322 250.108C422.089 242.972 426.704 234.501 429.51 227.883C431.71 222.694 434.113 217.598 435.724 212.181C438.726 202.103 440.753 189.206 435.105 179.664Z" fill="url(#paint1_linear_9_1677)"/>
<g opacity="0.8">
<g opacity="0.8">
<path opacity="0.8" d="M200.415 392.547C200.077 392.547 199.782 392.297 199.735 391.954C199.684 391.578 199.946 391.231 200.322 391.18C200.553 391.148 223.72 387.906 251.521 378.842C277.139 370.492 312.045 355.351 332.859 330.643C350.242 310.007 372.44 273.541 393.762 230.596C412.88 192.088 424.305 162.63 424.305 156.399C424.305 156.02 424.613 155.713 424.992 155.713C425.371 155.713 425.678 156.02 425.678 156.399C425.678 163.689 412.199 196.548 394.991 231.208C373.622 274.246 351.358 310.812 333.908 331.528C312.881 356.489 277.718 371.75 251.923 380.156C224.008 389.253 200.739 392.508 200.507 392.539C200.478 392.546 200.446 392.547 200.415 392.547Z" fill="white"/>
</g>
<g opacity="0.8">
<path opacity="0.8" d="M390.891 238.504C390.514 238.504 390.207 238.217 390.205 237.84C390.202 237.34 389.672 187.61 372.22 170.158C371.951 169.891 371.951 169.459 372.22 169.192C372.487 168.924 372.922 168.926 373.191 169.193C391.043 187.045 391.565 235.763 391.579 237.83C391.582 238.209 391.277 238.504 390.896 238.504C390.893 238.504 390.891 238.504 390.891 238.504Z" fill="white"/>
</g>
<g opacity="0.8">
<path opacity="0.8" d="M364.665 286.341C364.384 286.341 364.119 286.166 364.019 285.886C363.892 285.529 364.076 285.136 364.435 285.007C364.589 284.951 380.124 279.424 397.895 276.49C421.906 272.523 438.353 274.921 446.78 283.614C447.044 283.886 447.036 284.321 446.764 284.585C446.491 284.849 446.057 284.841 445.792 284.569C426.407 264.57 365.511 286.08 364.898 286.3C364.82 286.329 364.742 286.341 364.665 286.341Z" fill="white"/>
</g>
<g opacity="0.8">
<path opacity="0.8" d="M275.074 371.47C275.001 371.47 274.926 371.457 274.851 371.434C274.493 371.311 274.3 370.921 274.424 370.561C274.488 370.371 280.919 351.445 284.109 330.212C287.032 310.744 287.763 285.305 274.641 274.664C274.346 274.425 274.302 273.992 274.54 273.697C274.779 273.403 275.212 273.356 275.507 273.597C286.449 282.469 289.8 301.593 285.464 330.433C282.255 351.786 275.789 370.814 275.724 371.005C275.626 371.29 275.359 371.47 275.074 371.47Z" fill="white"/>
</g>
<g opacity="0.8">
<path opacity="0.8" d="M312.705 350.687C312.409 350.687 312.136 350.494 312.047 350.198C311.937 349.835 312.144 349.452 312.507 349.343C315.141 348.553 377.213 330.114 395.118 340.445C395.446 340.635 395.559 341.055 395.37 341.383C395.18 341.711 394.76 341.824 394.432 341.635C377.033 331.597 313.541 350.467 312.902 350.658C312.837 350.678 312.77 350.687 312.705 350.687Z" fill="white"/>
</g>
</g>
<path d="M292.324 19.2174L291.834 22.7301C290.205 22.8049 288.603 23.0151 287.044 23.3654L285.716 20.0884C285.355 19.1951 284.331 18.77 283.431 19.141L277.799 21.461C276.898 21.832 276.458 22.8606 276.818 23.7555L278.153 27.0739C276.788 27.9433 275.498 28.9274 274.298 30.0165L271.47 27.8223C270.705 27.2299 269.597 27.3764 268.994 28.1503L265.21 32.991C264.604 33.7664 264.732 34.8778 265.497 35.4718L268.336 37.6787C267.58 39.0991 266.944 40.599 266.432 42.1643L262.828 41.6914C261.86 41.564 260.959 42.2503 260.815 43.2248L259.909 49.3297C259.764 50.3074 260.433 51.2055 261.403 51.3329L265.018 51.8074C265.06 53.4554 265.24 55.0764 265.561 56.6544L262.169 58.0684C261.255 58.4489 260.806 59.5014 261.166 60.417L263.425 66.1589C263.787 67.0793 264.823 67.514 265.74 67.1302L269.134 65.7099C269.987 67.0984 270.96 68.4073 272.04 69.6238L269.779 72.56C269.167 73.3546 269.298 74.4915 270.072 75.0998L274.919 78.9022C275.694 79.5105 276.82 79.3576 277.43 78.5599L279.664 75.6427C281.09 76.4023 282.6 77.0344 284.175 77.5392L283.667 81.1792C283.528 82.176 284.208 83.0884 285.186 83.2158L291.305 84.0183C292.284 84.1473 293.187 83.4419 293.324 82.4451L293.818 78.8322C295.482 78.7605 297.117 78.5455 298.708 78.1873L300.05 81.5248C300.423 82.4515 301.466 82.8894 302.38 82.5024L308.086 80.0837C308.999 79.6968 309.434 78.6347 309.059 77.7112L307.717 74.3976C309.11 73.4979 310.422 72.4772 311.639 71.3483L314.429 73.517C315.209 74.1237 316.327 73.9708 316.925 73.1763L320.663 68.221C321.26 67.4296 321.112 66.3006 320.333 65.6971L317.569 63.5539C318.322 62.0937 318.948 60.5508 319.445 58.9441L322.9 59.3979C323.87 59.5253 324.758 58.8327 324.884 57.8518L325.669 51.7309C325.795 50.7548 325.112 49.86 324.143 49.7326L320.698 49.2804C320.626 47.6116 320.416 45.9747 320.062 44.384L323.258 43.0464C324.156 42.6706 324.581 41.6325 324.209 40.728L321.874 35.0848C321.502 34.1836 320.473 33.7569 319.575 34.131L316.36 35.4718C315.484 34.0976 314.494 32.8015 313.394 31.6024L315.518 28.8302C316.109 28.058 315.964 26.9545 315.196 26.3637L310.395 22.6743C309.628 22.0852 308.528 22.2301 307.935 22.9992L305.798 25.7746C304.381 25.0389 302.884 24.4275 301.322 23.9434L301.798 20.4578C301.929 19.4993 301.259 18.6187 300.298 18.4929L294.3 17.7063C293.345 17.5837 292.458 18.2572 292.324 19.2174ZM271.177 47.6705C272.911 35.6071 283.982 27.1503 295.916 28.7156C307.851 30.2808 316.233 41.2901 314.629 53.3694C313.016 65.5236 301.921 74.146 289.856 72.5648C277.791 70.982 269.433 59.8072 271.177 47.6705Z" fill="#D8DEE8"/>
<path d="M200.349 17.3129L199.591 22.7443C197.073 22.859 194.596 23.1838 192.185 23.7252L190.132 18.6584C189.572 17.2763 187.991 16.6203 186.601 17.1935L177.892 20.781C176.499 21.3558 175.819 22.9434 176.376 24.3303L178.44 29.4607C176.33 30.8046 174.335 32.3253 172.48 34.0116L168.101 30.6183C166.921 29.7027 165.206 29.9304 164.273 31.1247L158.423 38.6086C157.485 39.8076 157.684 41.5257 158.866 42.4445L163.256 45.8584C162.087 48.0542 161.103 50.3742 160.31 52.7929L154.738 52.0621C153.243 51.8662 151.85 52.9267 151.625 54.433L150.226 63.8739C150.001 65.3866 151.036 66.7735 152.536 66.9693L158.124 67.7018C158.191 70.2495 158.468 72.7574 158.964 75.1968L153.721 77.3831C152.307 77.9722 151.613 79.598 152.17 81.0152L155.664 89.8923C156.222 91.3143 157.826 91.9878 159.243 91.3939L164.49 89.1981C165.808 91.3445 167.313 93.3683 168.983 95.2489L165.488 99.7886C164.542 101.018 164.745 102.776 165.942 103.715L173.437 109.594C174.636 110.535 176.376 110.298 177.321 109.065L180.774 104.556C182.98 105.731 185.316 106.709 187.75 107.489L186.964 113.118C186.749 114.659 187.8 116.07 189.314 116.267L198.776 117.508C200.288 117.707 201.686 116.616 201.896 115.075L202.661 109.489C205.234 109.379 207.763 109.046 210.221 108.492L212.296 113.653C212.872 115.086 214.485 115.763 215.898 115.164L224.722 111.425C226.132 110.828 226.805 109.185 226.225 107.755L224.149 102.631C226.304 101.241 228.332 99.6612 230.214 97.916L234.526 101.269C235.732 102.207 237.459 101.97 238.386 100.744L244.165 93.0833C245.086 91.8604 244.859 90.1137 243.655 89.1806L239.381 85.8685C240.547 83.609 241.513 81.2237 242.281 78.7413L247.625 79.4419C249.125 79.6394 250.499 78.5678 250.693 77.0519L251.906 67.5871C252.101 66.076 251.043 64.6939 249.548 64.4981L244.22 63.799C244.11 61.2195 243.786 58.6877 243.238 56.2292L248.18 54.1607C249.57 53.5795 250.228 51.9745 249.648 50.5764L246.039 41.8505C245.462 40.4572 243.872 39.798 242.485 40.376L237.515 42.4476C236.162 40.3219 234.628 38.3188 232.929 36.4669L236.212 32.1804C237.126 30.9877 236.904 29.2808 235.714 28.3668L228.291 22.6631C227.104 21.7523 225.402 21.9768 224.487 23.1663L221.181 27.4576C218.988 26.3207 216.675 25.3748 214.261 24.6248L214.998 19.2349C215.2 17.7524 214.162 16.3926 212.68 16.1983L203.404 14.9818C201.925 14.7875 200.556 15.8305 200.349 17.3129ZM167.651 61.307C170.33 42.6546 187.449 29.5785 205.901 31.9989C224.353 34.4192 237.313 51.4411 234.835 70.1189C232.342 88.9099 215.188 102.244 196.534 99.7965C177.878 97.3507 164.953 80.0709 167.651 61.307Z" fill="#D8DEE8"/>
<path d="M191.475 69.907L150.909 407.086C150.3 412.142 153.784 416.674 158.666 417.158L327.63 435.708C337.98 436.352 343.647 431.064 344.288 425.688L386.877 67.2096C387.513 61.8642 382.435 57.022 372.04 57.022L201.54 60.6126C196.602 60.697 192.08 64.8785 191.475 69.907Z" fill="url(#paint2_linear_9_1677)"/>
<path d="M183.87 69.3278L143.081 408.193C142.469 413.275 145.966 417.83 150.864 418.317L326.032 435.758C331.524 436.304 336.557 432.331 337.199 426.929L380.027 66.5985C380.666 61.2245 376.632 56.9061 371.08 57L193.97 59.9888C189.018 60.07 184.478 64.2737 183.87 69.3278Z" fill="url(#paint3_linear_9_1677)"/>
<path d="M187.194 88.0177L149.388 402.214C148.816 406.96 152.092 411.209 156.676 411.654L321.415 427.668C326.52 428.165 331.199 424.457 331.797 419.427L371.378 86.5655C371.973 81.5625 368.228 77.5132 363.07 77.5689L196.64 79.3412C192.008 79.3889 187.763 83.2949 187.194 88.0177Z" fill="#D8DEE8"/>
<path d="M275.536 69.0933C275.32 70.8974 276.614 72.3416 278.429 72.3177C280.246 72.2954 281.896 70.8114 282.112 69.0041C282.329 67.1968 281.03 65.7526 279.213 65.7797C277.396 65.8067 275.751 67.2908 275.536 69.0933Z" fill="url(#paint4_linear_9_1677)"/>
<path d="M215.676 298.927C249.401 236.573 299.783 217.908 314.952 153.645C323.151 118.909 317.565 85.6614 308.156 58.0602L371.083 56.9981C376.635 56.9041 380.668 61.2241 380.03 66.5966L337.201 426.927C336.56 432.331 331.526 436.304 326.034 435.756L188.336 422.046C187.315 366.175 200.641 326.721 215.676 298.927Z" fill="white"/>
<path d="M17.5645 105.087C17.5645 71.9538 46.4666 45.0994 81.1504 45.1025C114.809 45.1057 141.372 70.5478 141.372 101.928C141.372 133.307 114.809 160.104 81.1504 161.826C46.465 163.6 17.5645 138.22 17.5645 105.087Z" fill="url(#paint5_linear_9_1677)"/>
<path d="M21.3032 102.445C21.3032 69.3117 49.3694 42.4573 83.0485 42.4604C115.732 42.4636 141.528 67.9057 141.528 99.2855C141.528 130.665 115.732 157.462 83.0485 159.184C49.3678 160.957 21.3032 135.576 21.3032 102.445Z" fill="url(#paint6_linear_9_1677)"/>
<g opacity="0.5">
<path opacity="0.5" d="M30.9114 102.191C30.9114 74.3545 54.4904 51.7914 82.7875 51.7961C110.247 51.7993 131.92 73.1746 131.92 99.5386C131.92 125.903 110.249 148.416 82.7875 149.862C54.4904 151.353 30.9114 130.028 30.9114 102.191Z" fill="white"/>
</g>
<path opacity="0.5" d="M80.8401 56.0731C108.3 56.0763 129.973 77.4515 129.973 103.816C129.973 110.084 128.735 116.131 126.498 121.732C129.963 114.987 131.922 107.438 131.922 99.5386C131.922 73.1746 110.25 51.7993 82.7891 51.7961C60.9648 51.7946 41.9589 65.221 34.4001 84.1313C42.9588 67.5059 60.7004 56.0715 80.8401 56.0731Z" fill="white"/>
<path d="M59.3254 95.3783V119.674C59.3254 126.698 65.2345 132.239 72.5019 132.049L90.5221 131.58C97.7019 131.392 103.504 125.607 103.504 118.656V94.6172L59.3254 95.3783ZM75.9206 120.496L79.2692 110.348C77.8345 109.607 76.8632 108.149 76.8632 106.45C76.8632 103.956 78.9555 101.894 81.5319 101.846C84.1051 101.797 86.1894 103.775 86.1894 106.263C86.1894 107.959 85.2213 109.454 83.7914 110.254L87.1273 120.234L75.9206 120.496Z" fill="white"/>
<path d="M98.3818 92.5105C96.4694 92.5423 94.9185 91.063 94.9185 89.2048C94.9185 82.0633 88.9234 76.3309 81.5303 76.4265C74.1117 76.522 68.0561 82.447 68.0561 89.6331C68.0561 91.5025 66.4845 93.0439 64.5434 93.0773C62.6008 93.1092 61.0244 91.6188 61.0244 89.7462C61.0244 78.8086 70.2487 69.8056 81.5319 69.6798C92.7545 69.554 101.839 78.264 101.839 89.0965C101.839 90.95 100.293 92.4786 98.3818 92.5105Z" fill="white"/>
<path d="M140.119 231.084C140.119 231.084 138.893 226.489 139.762 225.314C140.63 224.139 145.941 219.441 145.431 220.973C144.92 222.505 144.154 223.526 144.154 223.526C144.154 223.526 147.014 224.854 145.175 226.844C143.337 228.836 142.723 229.295 142.621 231.083C142.52 232.871 141.345 233.484 140.119 231.084Z" fill="url(#paint7_linear_9_1677)"/>
<path d="M89.1094 429.45C89.1094 429.45 88.4598 433.425 88.5426 434.839C88.6254 436.253 104.322 436.976 104.48 435.917C104.638 434.858 101.886 433.172 99.9483 432.578C98.0105 431.982 92.3386 430.396 92.3386 430.396L89.1094 429.45Z" fill="url(#paint8_linear_9_1677)"/>
<path d="M92.9191 425.489L92.4191 430.431C92.4191 430.431 90.596 431.637 88.9893 430.707L88.1852 425.328L92.9191 425.489Z" fill="url(#paint9_linear_9_1677)"/>
<path d="M61.1024 435.893C61.1024 435.893 60.4527 439.868 60.5355 441.281C60.6183 442.695 76.3154 443.418 76.473 442.359C76.6322 441.301 73.8791 439.614 71.9413 439.02C70.0034 438.426 64.3316 436.839 64.3316 436.839L61.1024 435.893Z" fill="url(#paint10_linear_9_1677)"/>
<path d="M64.9133 431.931L64.4133 436.874C64.4133 436.874 62.5901 438.079 60.9834 437.149L60.1793 431.77L64.9133 431.931Z" fill="url(#paint11_linear_9_1677)"/>
<path d="M90.0714 296.469C91.8851 300.148 93.7003 303.826 95.514 307.504C96.9725 328.496 97.6986 351.323 97.2321 375.735C96.8849 393.897 95.9152 411.102 94.5204 427.251C92.0602 427.138 89.6001 427.025 87.14 426.912C83.5827 419.852 79.3838 409.156 78.9968 395.952C78.594 382.181 82.7691 380.351 82.5047 367.165C82.1608 350.073 74.9938 345.513 71.1754 324.954C69.7152 317.091 68.7328 306.823 69.8999 294.364C76.6243 295.066 83.3471 295.769 90.0714 296.469Z" fill="url(#paint12_linear_9_1677)"/>
<path opacity="0.3" d="M69.9013 294.364C73.5317 294.743 77.1622 295.122 80.7943 295.501C87.3308 306.875 89.1556 318.712 88.0075 323.95C86.3849 331.359 82.092 333.731 82.3293 341.169C82.5634 348.529 86.8993 350.438 89.6492 359.111C91.5536 365.117 91.0504 370.639 89.9677 381.439C87.7862 403.191 82.5331 409.844 86.9327 416.976C88.1827 419.003 90.4358 421.415 94.8497 423.258C94.7414 424.592 94.6347 425.929 94.5217 427.249C92.0615 427.138 89.6014 427.023 87.1413 426.912C83.584 419.852 79.3851 409.156 78.9982 395.952C78.5953 382.181 82.7704 380.351 82.506 367.165C82.1621 350.073 74.9951 345.514 71.1767 324.956C69.7166 317.093 68.7325 306.824 69.9013 294.364Z" fill="url(#paint13_linear_9_1677)"/>
<path d="M80.3085 303.092C76.9025 321.665 73.8946 341.542 71.5476 362.622C68.7132 388.075 67.2005 412.072 66.6066 434.35C63.906 434.426 61.207 434.503 58.5065 434.579C47.8666 413.53 47.217 399.26 48.7504 389.969C49.3411 386.389 50.9477 379.369 51.314 368.875C51.5687 361.562 51.1022 355.995 50.5194 349.304C49.2424 334.634 47.6915 331.432 47.4685 320.211C47.2583 309.679 47.2154 304.351 50.2217 301.242C58.1418 293.046 78.7464 302.366 80.3085 303.092Z" fill="url(#paint14_linear_9_1677)"/>
<path d="M138.708 230.376C140.504 230.25 142.298 230.126 144.094 230C148.33 247.119 145.292 263.724 135.731 269.83C120.794 279.372 93.0319 261.396 87.0161 241.821C84.3761 233.229 84.9764 220.832 90.2549 218.422C91.7198 217.754 93.9937 217.65 98.9187 220.414C113.627 228.672 114.014 244.28 121.491 245.602C124.813 246.191 130.182 244.071 138.708 230.376Z" fill="url(#paint15_linear_9_1677)"/>
<path d="M97.581 311.27C100.169 306.977 96.9186 302.837 96.1797 294.705C95.3422 285.487 98.8931 283.952 102.404 268.677C104.74 258.518 106.98 248.765 104.305 237.348C103.024 231.877 100.848 222.597 93.1671 218.115C89.2038 215.801 83.7915 216.034 73.131 216.591C59.9466 217.281 53.356 217.624 48.4389 220.214C47.7192 220.593 32.7642 228.728 31.7339 241.989C30.6862 255.485 45.3833 257.299 47.3434 275.297C48.224 283.376 46.6555 295.802 45.638 303.861C44.6619 311.6 43.9884 313.581 45.517 315.925C49.1985 321.573 60.4673 319.963 83.0049 316.745C91.8455 315.48 95.6495 314.474 97.581 311.27Z" fill="url(#paint16_linear_9_1677)"/>
<path d="M63.2881 272.4C62.3343 275.908 58.9076 278.527 56.5223 287.061C56.008 288.903 52.3377 302.022 57.0971 305.251C59.8455 307.116 62.3135 303.582 68.9854 303.121C80.5456 302.321 86.0534 312.038 93.6058 309.383C94.9162 308.921 96.6455 307.941 98.3732 305.686C98.7171 307.718 98.6582 309.484 97.5818 311.272C95.6519 314.475 91.8463 315.482 83.0057 316.745C60.4681 319.963 49.1992 321.572 45.5178 315.924C43.9908 313.582 44.6627 311.6 45.6388 303.861C46.6563 295.801 48.2247 283.374 47.3442 275.297C45.384 257.299 30.6854 255.485 31.7347 241.988C32.0149 238.38 33.3414 235.169 35.1168 232.371C53.7612 239.915 66.2832 261.376 63.2881 272.4Z" fill="url(#paint17_linear_9_1677)"/>
<path d="M39.7401 298.947L43.4709 301.329C44.1413 300.555 45.6922 298.995 48.1125 298.463C50.8402 297.863 53.9722 298.724 54.0439 299.593C54.1028 300.291 52.1952 300.995 51.9006 301.103C49.5201 301.982 47.7542 301.251 46.7925 302.208C46.4517 302.546 46.0282 303.176 45.0521 303.759C44.7957 303.912 44.5282 304.047 44.3865 304.103C42.7974 304.721 40.0729 301.955 39.8388 301.713L39.7401 298.947Z" fill="url(#paint18_linear_9_1677)"/>
<path d="M50.7604 250.021C53.4594 243.558 55.3287 233.662 51.0661 218.967C22.9808 230.033 8.65793 256.268 14.2501 277.064C18.8599 294.208 35.6334 302.558 39.3753 304.316C40.2463 302.334 41.1173 300.353 41.9867 298.372C37.6508 293.544 32.764 286.404 33.4551 278.256C34.4137 266.961 45.2971 263.106 50.7604 250.021Z" fill="url(#paint19_linear_9_1677)"/>
<path d="M72.4393 203.295C72.4393 203.295 72.218 208.207 70.6925 211.887C69.3136 215.212 62.0653 217.303 60.5956 218.045C59.1259 218.787 63.3488 220.957 67.5891 221.382C71.8294 221.809 83.9374 220.845 86.1205 219.239C88.3035 217.632 84.3657 217.753 81.3403 216.642C78.3134 215.53 76.5634 209.612 77.0984 206.925C77.6334 204.238 72.4393 203.295 72.4393 203.295Z" fill="url(#paint20_linear_9_1677)"/>
<path d="M79.1459 201.513C81.3465 199.351 81.6538 199.099 81.8927 198.353C82.8544 195.354 80.5281 191.246 77.4772 190.235C77.3179 190.183 75.2718 189.528 74.4916 190.415C73.8276 191.168 74.8037 192.21 74.3403 193.663C73.9056 195.023 72.7273 195.125 70.541 196.908C68.7401 198.377 67.6223 199.291 67.3644 200.576C66.8325 203.224 70.0379 207.061 72.8754 206.958C73.896 206.919 74.1747 206.399 79.1459 201.513Z" fill="url(#paint21_linear_9_1677)"/>
<path d="M73.1546 207.366C73.1546 207.366 75.4938 210.014 79.0558 209.139C82.2452 208.355 81.4315 201.034 79.0972 199.865C78.3185 199.475 76.903 199.507 75.8393 200.02C75.2103 200.322 75.0352 200.637 73.9986 201.112C73.0432 201.55 72.7391 201.489 72.4827 201.798C72.161 202.183 72.0225 203.015 73.0305 205.018C72.3044 204.503 71.5225 204.395 71.0432 204.736C70.9668 204.79 70.7725 204.981 70.6882 205.231C70.384 206.137 71.3267 207.059 73.1546 207.366Z" fill="url(#paint22_linear_9_1677)"/>
<path d="M339.909 108.237L340.732 112.681L323.785 112.721L176.719 113.07C172.935 113.079 169.456 116.206 168.937 120.055L133.83 354.688C133.307 358.571 139.352 364.499 143.113 364.789L208.358 369.803V369.724L305.954 377.211C305.956 377.211 305.958 377.211 305.959 377.211L306.195 377.31C310.362 377.631 314.185 374.608 314.726 370.506C314.726 370.504 314.726 370.523 314.728 370.522L347.606 120.01C348.141 115.947 344.1 108.226 339.909 108.237Z" fill="url(#paint23_linear_9_1677)"/>
<path d="M311.401 365.625C310.863 369.728 307.042 372.795 302.875 372.475L139.624 359.94C135.865 359.652 133.248 356.27 133.771 352.386L165.685 115.258C166.203 111.41 169.682 108.282 173.462 108.271L337.635 107.819C341.824 107.808 344.796 111.093 344.264 115.157L311.401 365.625Z" fill="url(#paint24_linear_9_1677)"/>
<path d="M313.57 235.218C313.303 237.249 311.405 238.765 309.332 238.689L165.652 233.445C163.756 233.377 162.421 231.815 162.682 229.874L165.507 208.936C165.768 206.997 167.499 205.685 169.397 205.737L313.203 209.731C315.279 209.788 316.749 211.255 316.483 213.285L313.57 235.218Z" fill="white"/>
<path d="M308.007 277.76C307.739 279.796 305.84 281.533 303.766 281.43L160.195 274.338C158.3 274.244 156.982 272.43 157.243 270.487L160.09 249.146C160.351 247.205 162.098 245.541 163.994 245.617L307.653 251.411C309.726 251.496 311.193 253.372 310.925 255.405L308.007 277.76Z" fill="white"/>
<path opacity="0.1" d="M316.494 213.201C316.153 213.091 315.787 213.03 315.397 213.019L171.589 209.027C169.692 208.973 167.96 210.288 167.702 212.223L164.872 233.16C164.866 233.215 164.861 233.266 164.856 233.32C163.398 232.909 162.46 231.527 162.68 229.871L165.509 208.933C165.767 206.999 167.5 205.682 169.396 205.738L313.204 209.729C315.244 209.79 316.708 211.21 316.494 213.201Z" fill="url(#paint25_linear_9_1677)"/>
<path opacity="0.1" d="M310.956 254.933C310.611 254.796 310.238 254.714 309.843 254.698L166.188 248.902C164.291 248.825 162.541 250.492 162.283 252.433L159.432 273.777C159.416 273.914 159.404 274.046 159.404 274.183C157.946 273.712 157.019 272.143 157.239 270.487L160.091 249.144C160.349 247.203 162.097 245.535 163.995 245.612L307.651 251.408C309.569 251.491 310.961 253.091 310.956 254.933Z" fill="url(#paint26_linear_9_1677)"/>
<path d="M269.823 312.241C270.247 309.03 267.976 306.071 264.749 305.885L190.427 301.617C187.349 301.441 184.507 304.033 184.088 307.16L181.021 330.278C180.603 333.41 182.738 336.406 185.814 336.617L260.097 341.699C263.323 341.921 266.295 339.196 266.72 335.98L269.823 312.241Z" fill="url(#paint27_linear_9_1677)"/>
<path d="M275.436 156.492C274.457 163.882 270.661 170.552 265.263 175.458C259.446 180.749 251.784 183.969 243.816 183.815C235.888 183.662 229.215 180.198 224.93 174.789C220.977 169.804 219.041 163.161 220.011 155.895C222.028 140.779 235.917 128.56 251.157 128.596C266.542 128.63 277.471 141.118 275.436 156.492Z" fill="url(#paint28_linear_9_1677)"/>
<path d="M260.616 148.093C259.737 154.714 253.626 160.019 246.991 159.94C240.383 159.86 235.756 154.467 236.63 147.894C237.505 141.322 243.555 136.021 250.166 136.052C256.806 136.082 261.495 141.472 260.616 148.093Z" fill="white"/>
<path d="M265.264 175.458C259.447 180.75 251.785 183.969 243.817 183.815C235.889 183.662 229.216 180.199 224.931 174.79C229.835 167.957 237.924 163.413 246.515 163.524C255.151 163.635 262.113 168.422 265.264 175.458Z" fill="white"/>
<path opacity="0.4" d="M344.262 115.155L311.402 365.623C310.863 369.725 306.798 372.775 302.633 372.455L204.583 364.926C199.925 360.157 196.089 354.434 193.352 347.567C192.008 344.199 191.024 340.565 190.37 336.744C188.55 326.167 189.255 314.145 191.909 302.345C193.951 293.261 197.151 284.293 201.248 276.201C204.525 269.731 208.379 263.816 212.683 258.844C215.781 255.266 219.133 251.79 222.668 248.381C226.931 244.267 231.461 240.251 236.134 236.272C247.024 226.993 258.685 217.922 269.481 208.342C294.391 186.244 314.601 161.552 309.738 126.321C309.582 125.211 308.064 116.713 306.125 107.904L337.391 107.818C341.579 107.807 344.796 111.093 344.262 115.155Z" fill="white"/>
<defs>
<linearGradient id="paint0_linear_9_1677" x1="299.187" y1="321.862" x2="415.489" y2="7.75774" gradientUnits="userSpaceOnUse">
<stop offset="0.00359712" stop-color="#E38DDD"/>
<stop offset="1" stop-color="#9571F6"/>
</linearGradient>
<linearGradient id="paint1_linear_9_1677" x1="213.092" y1="290.853" x2="438.679" y2="290.853" gradientUnits="userSpaceOnUse">
<stop stop-color="#FF9085"/>
<stop offset="1" stop-color="#FB6FBB"/>
</linearGradient>
<linearGradient id="paint2_linear_9_1677" x1="270.983" y1="237.672" x2="337.571" y2="244.936" gradientUnits="userSpaceOnUse">
<stop stop-color="#444B8C"/>
<stop offset="0.9964" stop-color="#26264F"/>
</linearGradient>
<linearGradient id="paint3_linear_9_1677" x1="212.313" y1="69.8249" x2="376.965" y2="630.368" gradientUnits="userSpaceOnUse">
<stop stop-color="#444B8C"/>
<stop offset="0.9964" stop-color="#26264F"/>
</linearGradient>
<linearGradient id="paint4_linear_9_1677" x1="274.012" y1="56.0179" x2="467.522" y2="580.109" gradientUnits="userSpaceOnUse">
<stop stop-color="#FFC444"/>
<stop offset="0.9964" stop-color="#F36F56"/>
</linearGradient>
<linearGradient id="paint5_linear_9_1677" x1="-1416.63" y1="1514.23" x2="-1284.27" y2="1389.42" gradientUnits="userSpaceOnUse">
<stop stop-color="#311944"/>
<stop offset="1" stop-color="#893976"/>
</linearGradient>
<linearGradient id="paint6_linear_9_1677" x1="41.187" y1="137.331" x2="147.253" y2="41.0785" gradientUnits="userSpaceOnUse">
<stop stop-color="#FF9085"/>
<stop offset="1" stop-color="#FB6FBB"/>
</linearGradient>
<linearGradient id="paint7_linear_9_1677" x1="148.651" y1="221.024" x2="127.632" y2="242.418" gradientUnits="userSpaceOnUse">
<stop stop-color="#FFC444"/>
<stop offset="0.9964" stop-color="#F36F56"/>
</linearGradient>
<linearGradient id="paint8_linear_9_1677" x1="96.5517" y1="424.242" x2="96.7287" y2="376.78" gradientUnits="userSpaceOnUse">
<stop stop-color="#AA80F9"/>
<stop offset="0.9964" stop-color="#6165D7"/>
</linearGradient>
<linearGradient id="paint9_linear_9_1677" x1="91.8506" y1="439.493" x2="89.5906" y2="414.968" gradientUnits="userSpaceOnUse">
<stop stop-color="#FFC444"/>
<stop offset="0.9964" stop-color="#F36F56"/>
</linearGradient>
<linearGradient id="paint10_linear_9_1677" x1="68.5701" y1="424.137" x2="68.7472" y2="376.675" gradientUnits="userSpaceOnUse">
<stop stop-color="#AA80F9"/>
<stop offset="0.9964" stop-color="#6165D7"/>
</linearGradient>
<linearGradient id="paint11_linear_9_1677" x1="63.4914" y1="442.106" x2="61.2315" y2="417.581" gradientUnits="userSpaceOnUse">
<stop stop-color="#FFC444"/>
<stop offset="0.9964" stop-color="#F36F56"/>
</linearGradient>
<linearGradient id="paint12_linear_9_1677" x1="90.9922" y1="315.918" x2="73.5955" y2="404.858" gradientUnits="userSpaceOnUse">
<stop stop-color="#311944"/>
<stop offset="1" stop-color="#893976"/>
</linearGradient>
<linearGradient id="paint13_linear_9_1677" x1="99.6737" y1="359.408" x2="73.5372" y2="361.503" gradientUnits="userSpaceOnUse">
<stop stop-color="#311944"/>
<stop offset="1" stop-color="#893976"/>
</linearGradient>
<linearGradient id="paint14_linear_9_1677" x1="85.2172" y1="364.325" x2="45.5396" y2="367.505" gradientUnits="userSpaceOnUse">
<stop stop-color="#311944"/>
<stop offset="1" stop-color="#893976"/>
</linearGradient>
<linearGradient id="paint15_linear_9_1677" x1="116.558" y1="233.366" x2="87.2028" y2="421.892" gradientUnits="userSpaceOnUse">
<stop stop-color="#AA80F9"/>
<stop offset="0.9964" stop-color="#6165D7"/>
</linearGradient>
<linearGradient id="paint16_linear_9_1677" x1="54.1244" y1="440.301" x2="39.9263" y2="630.569" gradientUnits="userSpaceOnUse">
<stop stop-color="#AA80F9"/>
<stop offset="0.9964" stop-color="#6165D7"/>
</linearGradient>
<linearGradient id="paint17_linear_9_1677" x1="5.85269" y1="375.426" x2="84.2139" y2="241.2" gradientUnits="userSpaceOnUse">
<stop stop-color="#AA80F9"/>
<stop offset="0.9964" stop-color="#6165D7"/>
</linearGradient>
<linearGradient id="paint18_linear_9_1677" x1="33.6314" y1="282.619" x2="50.1583" y2="304.944" gradientUnits="userSpaceOnUse">
<stop stop-color="#FFC444"/>
<stop offset="0.9964" stop-color="#F36F56"/>
</linearGradient>
<linearGradient id="paint19_linear_9_1677" x1="19.4352" y1="437.712" x2="5.23719" y2="627.981" gradientUnits="userSpaceOnUse">
<stop stop-color="#AA80F9"/>
<stop offset="0.9964" stop-color="#6165D7"/>
</linearGradient>
<linearGradient id="paint20_linear_9_1677" x1="80.564" y1="226.986" x2="64.6538" y2="207.19" gradientUnits="userSpaceOnUse">
<stop stop-color="#FFC444"/>
<stop offset="0.9964" stop-color="#F36F56"/>
</linearGradient>
<linearGradient id="paint21_linear_9_1677" x1="68.4659" y1="219.716" x2="76.8986" y2="191.975" gradientUnits="userSpaceOnUse">
<stop stop-color="#444B8C"/>
<stop offset="0.9964" stop-color="#3E4177"/>
</linearGradient>
<linearGradient id="paint22_linear_9_1677" x1="89.9721" y1="210.035" x2="66.2528" y2="199.477" gradientUnits="userSpaceOnUse">
<stop stop-color="#FFC444"/>
<stop offset="0.9964" stop-color="#F36F56"/>
</linearGradient>
<linearGradient id="paint23_linear_9_1677" x1="133.799" y1="242.786" x2="347.655" y2="242.786" gradientUnits="userSpaceOnUse">
<stop stop-color="#311944"/>
<stop offset="1" stop-color="#893976"/>
</linearGradient>
<linearGradient id="paint24_linear_9_1677" x1="263.816" y1="663.403" x2="238.316" y2="221.708" gradientUnits="userSpaceOnUse">
<stop offset="0.003597" stop-color="#F36F56"/>
<stop offset="1" stop-color="#FFC444"/>
</linearGradient>
<linearGradient id="paint25_linear_9_1677" x1="162.647" y1="219.529" x2="316.514" y2="219.529" gradientUnits="userSpaceOnUse">
<stop offset="0.003597" stop-color="#F36F56"/>
<stop offset="1" stop-color="#FFC444"/>
</linearGradient>
<linearGradient id="paint26_linear_9_1677" x1="157.208" y1="259.897" x2="310.956" y2="259.897" gradientUnits="userSpaceOnUse">
<stop offset="0.003597" stop-color="#F36F56"/>
<stop offset="1" stop-color="#FFC444"/>
</linearGradient>
<linearGradient id="paint27_linear_9_1677" x1="232.779" y1="274.802" x2="198.409" y2="492.756" gradientUnits="userSpaceOnUse">
<stop offset="0.003597" stop-color="#F36F56"/>
<stop offset="1" stop-color="#FFC444"/>
</linearGradient>
<linearGradient id="paint28_linear_9_1677" x1="244.084" y1="47.8725" x2="251.425" y2="266.447" gradientUnits="userSpaceOnUse">
<stop offset="0.003597" stop-color="#F36F56"/>
<stop offset="1" stop-color="#FFC444"/>
</linearGradient>
</defs>
</svg>
